STARTFONT 2.1
COMMENT
COMMENT Converted from OpenType font "VCR_OSD_MONO.ttf" by "otf2bdf 3.0".
COMMENT
FONT -FreeType-VCR OSD Mono-Medium-R-Normal--24-240-72-72-P-107-ISO10646-1
SIZE 24 72 72
FONTBOUNDINGBOX 14 20 0 0
STARTPROPERTIES 19
FOUNDRY "FreeType"
FAMILY_NAME "VCR OSD Mono"
WEIGHT_NAME "Medium"
SLANT "R"
SETWIDTH_NAME "Normal"
ADD_STYLE_NAME ""
PIXEL_SIZE 24
POINT_SIZE 240
RESOLUTION_X 72
RESOLUTION_Y 72
SPACING "P"
AVERAGE_WIDTH 107
CHARSET_REGISTRY "ISO10646"
CHARSET_ENCODING "1"
FONT_ASCENT 21
FONT_DESCENT 0
COPYRIGHT "-FreeType-VCR OSD Mono-Medium-R-Normal--24-240-72-72-P-107-ISO10646-1"
_OTF_FONTFILE "VCR_OSD_MONO.ttf"
_OTF_PSNAME "VCROSDMono"
ENDPROPERTIES
CHARS 207
STARTCHAR 0000
ENCODING 0
SWIDTH 0 0
DWIDTH 0 0
BBX 0 0 0 0
BITMAP
ENDCHAR
STARTCHAR 001D
ENCODING 29
SWIDTH 0 0
DWIDTH 0 0
BBX 0 0 0 0
BITMAP
ENDCHAR
STARTCHAR 0020
ENCODING 32
SWIDTH 583 0
DWIDTH 14 0
BBX 0 0 0 0
BITMAP
ENDCHAR
STARTCHAR 0021
ENCODING 33
SWIDTH 583 0
DWIDTH 14 0
BBX 2 17 5 1
BITMAP
C0
C0
C0
C0
C0
C0
C0
C0
C0
C0
C0
C0
00
00
00
C0
C0
ENDCHAR
STARTCHAR 0022
ENCODING 34
SWIDTH 583 0
DWIDTH 14 0
BBX 10 5 2 13
BITMAP
F3C0
F3C0
F3C0
F3C0
4100
ENDCHAR
STARTCHAR 0023
ENCODING 35
SWIDTH 583 0
DWIDTH 14 0
BBX 13 15 1 3
BITMAP
00E0
18E0
18F8
18F8
1FE0
FFE0
F8E0
18E0
18F8
1FF8
1FE0
F8E0
F8E0
18E0
1800
ENDCHAR
STARTCHAR 0024
ENCODING 36
SWIDTH 583 0
DWIDTH 14 0
BBX 12 17 1 1
BITMAP
0600
0600
3F80
7FC0
F6F0
C630
F600
F600
7F80
06F0
06F0
C630
F6F0
76C0
7FC0
3F80
0600
ENDCHAR
STARTCHAR 0025
ENCODING 37
SWIDTH 583 0
DWIDTH 14 0
BBX 12 17 1 1
BITMAP
7830
7830
CC30
CC30
CCF0
FCE0
7BC0
7FC0
0F00
0F00
3CE0
7BF0
F330
C330
C330
C3F0
C0E0
ENDCHAR
STARTCHAR 0026
ENCODING 38
SWIDTH 583 0
DWIDTH 14 0
BBX 12 18 1 1
BITMAP
1E00
6180
6180
6180
6180
6180
1B00
1F00
1F00
7E00
FE00
C730
C3F0
C1E0
E1E0
E1E0
7FF0
1F30
ENDCHAR
STARTCHAR 0027
ENCODING 39
SWIDTH 583 0
DWIDTH 14 0
BBX 4 5 5 13
BITMAP
F0
F0
F0
F0
40
ENDCHAR
STARTCHAR 0028
ENCODING 40
SWIDTH 583 0
DWIDTH 14 0
BBX 6 19 4 1
BITMAP
0C
08
78
60
C0
C0
C0
C0
C0
C0
C0
C0
C0
C0
C0
C0
38
18
0C
ENDCHAR
STARTCHAR 0029
ENCODING 41
SWIDTH 583 0
DWIDTH 14 0
BBX 6 19 5 1
BITMAP
C0
40
78
18
0C
0C
0C
0C
0C
0C
0C
0C
0C
0C
0C
0C
70
60
C0
ENDCHAR
STARTCHAR 002A
ENCODING 42
SWIDTH 583 0
DWIDTH 14 0
BBX 9 11 3 8
BITMAP
0C00
8C80
CD80
7F00
3E00
3E00
7F00
CD80
8C80
0C00
0C00
ENDCHAR
STARTCHAR 002B
ENCODING 43
SWIDTH 583 0
DWIDTH 14 0
BBX 12 12 1 4
BITMAP
0600
0600
0600
0600
0600
FFF0
FFF0
0600
0600
0600
0600
0600
ENDCHAR
STARTCHAR 002C
ENCODING 44
SWIDTH 583 0
DWIDTH 14 0
BBX 5 4 4 1
BITMAP
18
78
60
C0
ENDCHAR
STARTCHAR 002D
ENCODING 45
SWIDTH 583 0
DWIDTH 14 0
BBX 9 2 2 8
BITMAP
FF80
FF80
ENDCHAR
STARTCHAR 002E
ENCODING 46
SWIDTH 583 0
DWIDTH 14 0
BBX 2 2 5 1
BITMAP
C0
C0
ENDCHAR
STARTCHAR 002F
ENCODING 47
SWIDTH 583 0
DWIDTH 14 0
BBX 12 17 1 1
BITMAP
0030
0030
0030
0030
00F0
01E0
03C0
07C0
0700
1E00
3C00
7800
E000
E000
C000
C000
C000
ENDCHAR
STARTCHAR 0030
ENCODING 48
SWIDTH 583 0
DWIDTH 14 0
BBX 12 17 1 1
BITMAP
3F80
3F80
60C0
E0F0
C030
C030
C7F0
CF30
CE30
DE30
FC30
F030
C030
E0F0
E0F0
7FC0
3F80
ENDCHAR
STARTCHAR 0031
ENCODING 49
SWIDTH 583 0
DWIDTH 14 0
BBX 7 17 4 1
BITMAP
18
18
78
F8
F8
18
18
18
18
18
18
18
18
18
18
FE
FE
ENDCHAR
STARTCHAR 0032
ENCODING 50
SWIDTH 583 0
DWIDTH 14 0
BBX 12 17 1 1
BITMAP
3F80
3F80
60C0
E0F0
C030
0030
00F0
00F0
3FC0
7F80
E000
C000
C000
C000
C000
FFF0
FFF0
ENDCHAR
STARTCHAR 0033
ENCODING 51
SWIDTH 583 0
DWIDTH 14 0
BBX 12 17 1 1
BITMAP
3F80
3F80
60C0
E0F0
C030
0030
00F0
00F0
0FC0
0FC0
00F0
0030
0030
E0F0
E0F0
7FC0
3F80
ENDCHAR
STARTCHAR 0034
ENCODING 52
SWIDTH 583 0
DWIDTH 14 0
BBX 12 17 1 1
BITMAP
0180
0180
0380
0780
0F80
3D80
7980
7980
F180
C180
FFF0
FFF0
0180
0180
0180
0180
0180
ENDCHAR
STARTCHAR 0035
ENCODING 53
SWIDTH 583 0
DWIDTH 14 0
BBX 12 17 1 1
BITMAP
FFF0
FFF0
C000
C000
C000
C000
FF80
00F0
00F0
0030
0030
0030
C030
F0F0
70C0
7FC0
3F80
ENDCHAR
STARTCHAR 0036
ENCODING 54
SWIDTH 583 0
DWIDTH 14 0
BBX 12 17 1 1
BITMAP
3F80
3F80
60C0
E0F0
C030
C000
C000
C000
FF80
FFC0
C0F0
C030
C030
E0F0
E0F0
7FC0
3F80
ENDCHAR
STARTCHAR 0037
ENCODING 55
SWIDTH 583 0
DWIDTH 14 0
BBX 12 17 1 1
BITMAP
FFF0
FFF0
0030
0030
0030
0070
01E0
01E0
03C0
0780
0600
0600
0600
0600
0600
0600
0600
ENDCHAR
STARTCHAR 0038
ENCODING 56
SWIDTH 583 0
DWIDTH 14 0
BBX 12 17 1 1
BITMAP
3F80
3F80
60C0
E0F0
C030
C030
E0F0
E0F0
7FC0
7FC0
E0F0
C030
C030
E0F0
E0F0
7FC0
3F80
ENDCHAR
STARTCHAR 0039
ENCODING 57
SWIDTH 583 0
DWIDTH 14 0
BBX 12 17 1 1
BITMAP
3F80
3F80
60C0
E0F0
C030
C030
C030
E030
7FF0
3FF0
0030
0030
0030
E0F0
E0F0
7FC0
3F80
ENDCHAR
STARTCHAR 003A
ENCODING 58
SWIDTH 583 0
DWIDTH 14 0
BBX 2 12 5 4
BITMAP
C0
C0
00
00
00
00
00
00
00
00
C0
C0
ENDCHAR
STARTCHAR 003B
ENCODING 59
SWIDTH 583 0
DWIDTH 14 0
BBX 5 14 2 1
BITMAP
18
18
00
00
00
00
00
00
00
18
18
30
30
E0
ENDCHAR
STARTCHAR 003C
ENCODING 60
SWIDTH 583 0
DWIDTH 14 0
BBX 9 17 2 1
BITMAP
0380
0380
0700
1E00
3C00
7800
E000
E000
C000
E000
7800
3C00
1E00
0700
0700
0380
0180
ENDCHAR
STARTCHAR 003D
ENCODING 61
SWIDTH 583 0
DWIDTH 14 0
BBX 12 7 1 6
BITMAP
FFF0
FFF0
0000
0000
0000
FFF0
FFF0
ENDCHAR
STARTCHAR 003E
ENCODING 62
SWIDTH 583 0
DWIDTH 14 0
BBX 9 17 2 1
BITMAP
E000
E000
7800
3C00
1E00
0700
0380
0380
0180
0380
0700
1E00
3C00
7800
7800
E000
C000
ENDCHAR
STARTCHAR 003F
ENCODING 63
SWIDTH 583 0
DWIDTH 14 0
BBX 12 17 1 1
BITMAP
3F80
3F80
70C0
F0F0
C030
0030
00F0
01C0
01C0
0780
0700
0600
0000
0000
0000
0600
0600
ENDCHAR
STARTCHAR 0040
ENCODING 64
SWIDTH 583 0
DWIDTH 14 0
BBX 12 14 1 3
BITMAP
3F80
2080
60C0
C070
8C10
B310
B310
B310
B310
B370
8FC0
C000
60C0
3F80
ENDCHAR
STARTCHAR 0041
ENCODING 65
SWIDTH 583 0
DWIDTH 14 0
BBX 12 17 1 1
BITMAP
0600
0600
1F00
3F80
79E0
E0F0
E0F0
C030
C030
C030
FFF0
FFF0
C030
C030
C030
C030
C030
ENDCHAR
STARTCHAR 0042
ENCODING 66
SWIDTH 583 0
DWIDTH 14 0
BBX 12 17 1 1
BITMAP
FFC0
FFC0
C0E0
C0F0
C030
C030
C0F0
C0F0
FFE0
FFE0
C0F0
C030
C030
C0F0
C0F0
FFE0
FFC0
ENDCHAR
STARTCHAR 0043
ENCODING 67
SWIDTH 583 0
DWIDTH 14 0
BBX 12 17 1 1
BITMAP
3F80
3F80
60C0
E0F0
C030
C000
C000
C000
C000
C000
C000
C000
C000
E0F0
E0F0
7FC0
3F80
ENDCHAR
STARTCHAR 0044
ENCODING 68
SWIDTH 583 0
DWIDTH 14 0
BBX 12 17 1 1
BITMAP
FFC0
FFC0
C0E0
C0F0
C030
C030
C030
C030
C030
C030
C030
C030
C030
C0F0
C0F0
FFE0
FFC0
ENDCHAR
STARTCHAR 0045
ENCODING 69
SWIDTH 583 0
DWIDTH 14 0
BBX 12 17 1 1
BITMAP
FFF0
FFF0
C000
C000
C000
C000
C000
C000
FFC0
FFC0
C000
C000
C000
C000
C000
FFF0
FFF0
ENDCHAR
STARTCHAR 0046
ENCODING 70
SWIDTH 583 0
DWIDTH 14 0
BBX 12 17 1 1
BITMAP
FFF0
FFF0
C000
C000
C000
C000
C000
C000
FFC0
FFC0
C000
C000
C000
C000
C000
C000
C000
ENDCHAR
STARTCHAR 0047
ENCODING 71
SWIDTH 583 0
DWIDTH 14 0
BBX 12 17 1 1
BITMAP
3F80
3F80
60C0
E0F0
C030
C000
C000
C000
C3F0
C3F0
C030
C030
C030
E0F0
E0F0
7FC0
3F80
ENDCHAR
STARTCHAR 0048
ENCODING 72
SWIDTH 583 0
DWIDTH 14 0
BBX 12 17 1 1
BITMAP
C030
C030
C030
C030
C030
C030
C030
C030
FFF0
FFF0
C030
C030
C030
C030
C030
C030
C030
ENDCHAR
STARTCHAR 0049
ENCODING 73
SWIDTH 583 0
DWIDTH 14 0
BBX 7 17 4 1
BITMAP
FE
FE
18
18
18
18
18
18
18
18
18
18
18
18
18
FE
FE
ENDCHAR
STARTCHAR 004A
ENCODING 74
SWIDTH 583 0
DWIDTH 14 0
BBX 12 17 1 1
BITMAP
07F0
07F0
0180
0180
0180
0180
0180
0180
0180
0180
0180
0180
0180
F380
F380
7F00
3E00
ENDCHAR
STARTCHAR 004B
ENCODING 75
SWIDTH 583 0
DWIDTH 14 0
BBX 12 17 1 1
BITMAP
C030
C030
C0E0
C1E0
C3C0
CF00
DE00
DE00
FC00
FC00
DE00
CF00
C3C0
C1E0
C1E0
C0F0
C030
ENDCHAR
STARTCHAR 004C
ENCODING 76
SWIDTH 583 0
DWIDTH 14 0
BBX 12 17 1 1
BITMAP
C000
C000
C000
C000
C000
C000
C000
C000
C000
C000
C000
C000
C000
C000
C000
FFF0
FFF0
ENDCHAR
STARTCHAR 004D
ENCODING 77
SWIDTH 583 0
DWIDTH 14 0
BBX 12 17 1 1
BITMAP
C030
C030
C030
E0F0
F9F0
FFF0
FFF0
DF30
C630
C630
C030
C030
C030
C030
C030
C030
C030
ENDCHAR
STARTCHAR 004E
ENCODING 78
SWIDTH 583 0
DWIDTH 14 0
BBX 12 17 1 1
BITMAP
C030
C030
C030
C030
E030
F030
FC30
FE30
DE30
CF30
C7F0
C1F0
C1F0
C0F0
C030
C030
C030
ENDCHAR
STARTCHAR 004F
ENCODING 79
SWIDTH 583 0
DWIDTH 14 0
BBX 12 17 1 1
BITMAP
3F80
3F80
60C0
E0F0
C030
C030
C030
C030
C030
C030
C030
C030
C030
E0F0
E0F0
7FC0
3F80
ENDCHAR
STARTCHAR 0050
ENCODING 80
SWIDTH 583 0
DWIDTH 14 0
BBX 12 17 1 1
BITMAP
FFC0
FFC0
C0E0
C0F0
C030
C030
C0F0
C0F0
FFE0
FFC0
C000
C000
C000
C000
C000
C000
C000
ENDCHAR
STARTCHAR 0051
ENCODING 81
SWIDTH 583 0
DWIDTH 14 0
BBX 12 17 1 1
BITMAP
3F80
3F80
70C0
F0F0
C030
C030
C030
C030
C030
C030
C630
C730
C3F0
F1C0
F1C0
7FF0
3E30
ENDCHAR
STARTCHAR 0052
ENCODING 82
SWIDTH 583 0
DWIDTH 14 0
BBX 12 17 1 1
BITMAP
FFC0
FFC0
C0E0
C0F0
C030
C030
C0F0
C0F0
FFE0
FFC0
DE00
CF00
CF00
C3E0
C1E0
C0F0
C030
ENDCHAR
STARTCHAR 0053
ENCODING 83
SWIDTH 583 0
DWIDTH 14 0
BBX 12 17 1 1
BITMAP
3F80
3F80
60C0
E0F0
C030
C000
E000
E000
7F80
3FC0
00F0
0030
0030
E0F0
E0F0
7FC0
3F80
ENDCHAR
STARTCHAR 0054
ENCODING 84
SWIDTH 583 0
DWIDTH 14 0
BBX 12 17 1 1
BITMAP
FFF0
FFF0
0600
0600
0600
0600
0600
0600
0600
0600
0600
0600
0600
0600
0600
0600
0600
ENDCHAR
STARTCHAR 0055
ENCODING 85
SWIDTH 583 0
DWIDTH 14 0
BBX 12 17 1 1
BITMAP
C030
C030
C030
C030
C030
C030
C030
C030
C030
C030
C030
C030
C030
E0F0
60C0
7FC0
3F80
ENDCHAR
STARTCHAR 0056
ENCODING 86
SWIDTH 583 0
DWIDTH 14 0
BBX 12 17 1 1
BITMAP
C030
C030
C030
C030
C030
C030
C030
C030
C030
C030
C030
E0F0
79E0
3F80
3F80
1F00
0600
ENDCHAR
STARTCHAR 0057
ENCODING 87
SWIDTH 583 0
DWIDTH 14 0
BBX 12 17 1 1
BITMAP
C030
C030
C030
C030
C030
C030
C030
C030
C630
C630
C630
C630
C630
FFF0
7FC0
7FC0
1980
ENDCHAR
STARTCHAR 0058
ENCODING 88
SWIDTH 583 0
DWIDTH 14 0
BBX 12 17 1 1
BITMAP
C030
C030
C030
C030
E0F0
79E0
3F80
3F80
1F00
1F00
3F80
79E0
E0F0
E0F0
C030
C030
C030
ENDCHAR
STARTCHAR 0059
ENCODING 89
SWIDTH 583 0
DWIDTH 14 0
BBX 12 17 1 1
BITMAP
C030
C030
C030
C030
C030
C030
E0F0
79E0
79E0
3F80
1F00
0600
0600
0600
0600
0600
0600
ENDCHAR
STARTCHAR 005A
ENCODING 90
SWIDTH 583 0
DWIDTH 14 0
BBX 12 17 1 1
BITMAP
FFF0
FFF0
0030
0030
00F0
01E0
03C0
0FC0
0F00
1E00
3C00
7800
E000
E000
C000
FFF0
FFF0
ENDCHAR
STARTCHAR 005B
ENCODING 91
SWIDTH 583 0
DWIDTH 14 0
BBX 7 18 5 1
BITMAP
FE
FE
C0
C0
C0
C0
C0
C0
C0
C0
C0
C0
C0
C0
C0
C0
FE
FE
ENDCHAR
STARTCHAR 005C
ENCODING 92
SWIDTH 583 0
DWIDTH 14 0
BBX 12 17 1 1
BITMAP
C000
C000
C000
C000
E000
7800
3C00
3E00
1E00
0700
03C0
01E0
00F0
00F0
0030
0030
0030
ENDCHAR
STARTCHAR 005D
ENCODING 93
SWIDTH 583 0
DWIDTH 14 0
BBX 7 18 2 1
BITMAP
FE
FE
06
06
06
06
06
06
06
06
06
06
06
06
06
06
FE
FE
ENDCHAR
STARTCHAR 005E
ENCODING 94
SWIDTH 583 0
DWIDTH 14 0
BBX 12 6 1 12
BITMAP
0600
0F00
3F80
3F80
79E0
F0F0
ENDCHAR
STARTCHAR 005F
ENCODING 95
SWIDTH 583 0
DWIDTH 14 0
BBX 14 2 0 0
BITMAP
FFFC
FFFC
ENDCHAR
STARTCHAR 0060
ENCODING 96
SWIDTH 583 0
DWIDTH 14 0
BBX 6 3 4 14
BITMAP
F0
78
0C
ENDCHAR
STARTCHAR 0061
ENCODING 97
SWIDTH 583 0
DWIDTH 14 0
BBX 12 14 1 1
BITMAP
3F80
3FE0
00F0
0030
0030
3F30
7FF0
E0F0
C030
C030
C030
E0F0
7FF0
3F70
ENDCHAR
STARTCHAR 0062
ENCODING 98
SWIDTH 583 0
DWIDTH 14 0
BBX 12 17 1 1
BITMAP
C000
C000
C000
C000
CF00
CF80
CD80
FDE0
F0F0
F030
F030
F030
F0F0
FDE0
FDE0
CF80
CF00
ENDCHAR
STARTCHAR 0063
ENCODING 99
SWIDTH 583 0
DWIDTH 14 0
BBX 12 13 1 1
BITMAP
3F80
7FC0
60C0
E0F0
C030
C000
C000
C000
C000
E0F0
E0F0
7FC0
3F80
ENDCHAR
STARTCHAR 0064
ENCODING 100
SWIDTH 583 0
DWIDTH 14 0
BBX 12 17 1 1
BITMAP
0030
0030
0030
0030
1E30
3F30
3B30
7BF0
E1F0
C0F0
C0F0
C0F0
E1F0
7BF0
7BF0
3F30
1E30
ENDCHAR
STARTCHAR 0065
ENCODING 101
SWIDTH 583 0
DWIDTH 14 0
BBX 12 13 1 1
BITMAP
3F80
7FC0
E0F0
E0F0
C030
FFF0
FFC0
C000
C000
E0F0
60C0
7FC0
3F80
ENDCHAR
STARTCHAR 0066
ENCODING 102
SWIDTH 583 0
DWIDTH 14 0
BBX 10 17 2 1
BITMAP
07C0
07C0
0C00
0C00
FFC0
FFC0
0C00
0C00
0C00
0C00
0C00
0C00
0C00
0C00
0C00
0C00
0C00
ENDCHAR
STARTCHAR 0067
ENCODING 103
SWIDTH 583 0
DWIDTH 14 0
BBX 12 14 1 1
BITMAP
3F80
7FC0
60C0
C030
C030
E0F0
7FF0
3F30
0030
0030
0030
60F0
7FC0
3F80
ENDCHAR
STARTCHAR 0068
ENCODING 104
SWIDTH 583 0
DWIDTH 14 0
BBX 12 17 1 1
BITMAP
C000
C000
C000
C000
CF00
DF80
FDE0
FDE0
F0F0
E030
C030
C030
C030
C030
C030
C030
C030
ENDCHAR
STARTCHAR 0069
ENCODING 105
SWIDTH 583 0
DWIDTH 14 0
BBX 8 15 3 1
BITMAP
18
18
00
00
00
F8
F8
18
18
18
18
1E
1E
0F
03
ENDCHAR
STARTCHAR 006A
ENCODING 106
SWIDTH 583 0
DWIDTH 14 0
BBX 7 17 4 1
BITMAP
06
06
00
00
3E
3E
06
06
06
06
06
06
06
0E
0E
FC
F8
ENDCHAR
STARTCHAR 006B
ENCODING 107
SWIDTH 583 0
DWIDTH 14 0
BBX 12 17 1 1
BITMAP
C000
C000
C000
C000
C030
C0F0
C1E0
C3E0
C3C0
CF00
DE00
FF00
F3C0
E1E0
E1E0
C0F0
C030
ENDCHAR
STARTCHAR 006C
ENCODING 108
SWIDTH 583 0
DWIDTH 14 0
BBX 2 17 6 1
BITMAP
C0
C0
C0
C0
C0
C0
C0
C0
C0
C0
C0
C0
C0
C0
C0
C0
C0
ENDCHAR
STARTCHAR 006D
ENCODING 109
SWIDTH 583 0
DWIDTH 14 0
BBX 12 13 1 1
BITMAP
DF80
DF80
E6F0
E6F0
C630
C630
C630
C630
C630
C630
C630
C630
C630
ENDCHAR
STARTCHAR 006E
ENCODING 110
SWIDTH 583 0
DWIDTH 14 0
BBX 12 13 1 1
BITMAP
DF80
DF80
E0F0
E0F0
C030
C030
C030
C030
C030
C030
C030
C030
C030
ENDCHAR
STARTCHAR 006F
ENCODING 111
SWIDTH 583 0
DWIDTH 14 0
BBX 12 13 1 1
BITMAP
3F80
7FC0
60C0
E0F0
C030
C030
C030
C030
C030
E0F0
E0F0
7FC0
3F80
ENDCHAR
STARTCHAR 0070
ENCODING 112
SWIDTH 583 0
DWIDTH 14 0
BBX 12 14 1 1
BITMAP
CF80
FFE0
F8F0
F030
F030
F030
F030
F8F0
FFE0
CF80
C000
C000
C000
C000
ENDCHAR
STARTCHAR 0071
ENCODING 113
SWIDTH 583 0
DWIDTH 14 0
BBX 12 14 1 1
BITMAP
3F30
7FF0
F1F0
C0F0
C0F0
C0F0
C0F0
F1F0
7FF0
3EF0
0030
0030
0030
0030
ENDCHAR
STARTCHAR 0072
ENCODING 114
SWIDTH 583 0
DWIDTH 14 0
BBX 12 13 1 1
BITMAP
CFE0
CFE0
FC70
FC70
F000
F000
C000
C000
C000
C000
C000
C000
C000
ENDCHAR
STARTCHAR 0073
ENCODING 115
SWIDTH 583 0
DWIDTH 14 0
BBX 12 13 1 1
BITMAP
3F80
7FE0
70E0
F0F0
F030
7E00
0F80
03E0
00E0
F0F0
F0F0
7FE0
3F80
ENDCHAR
STARTCHAR 0074
ENCODING 116
SWIDTH 583 0
DWIDTH 14 0
BBX 7 17 4 1
BITMAP
18
18
18
18
FE
FE
18
18
18
18
18
18
18
1C
0C
06
06
ENDCHAR
STARTCHAR 0075
ENCODING 117
SWIDTH 583 0
DWIDTH 14 0
BBX 12 13 1 1
BITMAP
C030
C030
C030
C030
C030
C030
C030
C030
C030
E0F0
E0F0
7FC0
3F80
ENDCHAR
STARTCHAR 0076
ENCODING 118
SWIDTH 583 0
DWIDTH 14 0
BBX 12 13 1 1
BITMAP
C030
C030
C030
C030
C030
C030
C030
E0F0
79E0
3F80
3F80
1F00
0600
ENDCHAR
STARTCHAR 0077
ENCODING 119
SWIDTH 583 0
DWIDTH 14 0
BBX 12 13 1 1
BITMAP
C030
C030
C030
C030
C030
C630
C630
C630
C630
F6F0
F6F0
7FC0
1980
ENDCHAR
STARTCHAR 0078
ENCODING 120
SWIDTH 583 0
DWIDTH 14 0
BBX 12 13 1 1
BITMAP
C030
E0F0
79E0
79E0
3F80
1F00
0600
1F00
3F80
79E0
79E0
E0F0
C030
ENDCHAR
STARTCHAR 0079
ENCODING 121
SWIDTH 583 0
DWIDTH 14 0
BBX 12 14 1 1
BITMAP
C030
C030
C0F0
C0F0
C1F0
C1F0
F3F0
7F30
3E30
0030
00F0
00F0
3FE0
3F80
ENDCHAR
STARTCHAR 007A
ENCODING 122
SWIDTH 583 0
DWIDTH 14 0
BBX 12 13 1 1
BITMAP
FFF0
FFF0
00F0
01F0
01E0
03C0
0700
1E00
3C00
7800
7800
FFF0
FFF0
ENDCHAR
STARTCHAR 007B
ENCODING 123
SWIDTH 583 0
DWIDTH 14 0
BBX 7 19 4 1
BITMAP
0E
0E
1E
1E
18
18
18
18
18
F0
F0
18
18
18
18
1E
0E
0E
0E
ENDCHAR
STARTCHAR 007C
ENCODING 124
SWIDTH 583 0
DWIDTH 14 0
BBX 2 19 6 1
BITMAP
C0
C0
C0
C0
C0
C0
C0
C0
C0
C0
C0
C0
C0
C0
C0
C0
C0
C0
C0
ENDCHAR
STARTCHAR 007D
ENCODING 125
SWIDTH 583 0
DWIDTH 14 0
BBX 7 19 4 1
BITMAP
F0
F0
F8
F8
18
18
18
18
18
0E
0E
18
18
18
18
F8
F0
F0
F0
ENDCHAR
STARTCHAR 007E
ENCODING 126
SWIDTH 583 0
DWIDTH 14 0
BBX 13 5 1 7
BITMAP
3C18
3C18
4620
C7E0
83C0
ENDCHAR
STARTCHAR 00A0
ENCODING 160
SWIDTH 583 0
DWIDTH 14 0
BBX 0 0 0 0
BITMAP
ENDCHAR
STARTCHAR 00A1
ENCODING 161
SWIDTH 583 0
DWIDTH 14 0
BBX 2 17 7 1
BITMAP
C0
C0
00
00
00
C0
C0
C0
C0
C0
C0
C0
C0
C0
C0
C0
C0
ENDCHAR
STARTCHAR 00A2
ENCODING 162
SWIDTH 583 0
DWIDTH 14 0
BBX 12 17 1 1
BITMAP
0600
0600
0600
3F80
7FC0
F6F0
C630
C600
C600
C600
C630
F6F0
76C0
3F80
3F80
0600
0600
ENDCHAR
STARTCHAR 00A3
ENCODING 163
SWIDTH 583 0
DWIDTH 14 0
BBX 12 18 1 1
BITMAP
0FE0
1C70
1C70
1800
1800
1800
1800
FFC0
FFC0
1800
1800
1800
1800
1800
6000
6000
FFF0
FFF0
ENDCHAR
STARTCHAR 00A5
ENCODING 165
SWIDTH 583 0
DWIDTH 14 0
BBX 9 17 2 1
BITMAP
C180
C180
C180
C180
6300
6300
3E00
3E00
3E00
0C00
FF80
0C00
0C00
FF80
0C00
0C00
0C00
ENDCHAR
STARTCHAR 00A6
ENCODING 166
SWIDTH 583 0
DWIDTH 14 0
BBX 2 19 6 1
BITMAP
C0
C0
C0
C0
C0
C0
C0
C0
00
00
00
C0
C0
C0
C0
C0
C0
C0
C0
ENDCHAR
STARTCHAR 00A8
ENCODING 168
SWIDTH 583 0
DWIDTH 14 0
BBX 7 2 4 15
BITMAP
C6
C6
ENDCHAR
STARTCHAR 00A9
ENCODING 169
SWIDTH 583 0
DWIDTH 14 0
BBX 12 13 1 4
BITMAP
3F80
2080
60C0
C770
8C10
8810
8810
8810
8810
8C10
C770
60C0
3F80
ENDCHAR
STARTCHAR 00AA
ENCODING 170
SWIDTH 583 0
DWIDTH 14 0
BBX 8 13 3 5
BITMAP
7E
C7
07
07
7F
C7
87
C7
7D
00
00
FF
FF
ENDCHAR
STARTCHAR 00AB
ENCODING 171
SWIDTH 583 0
DWIDTH 14 0
BBX 12 10 1 4
BITMAP
0410
1C70
18C0
6180
4100
C300
6180
18C0
1C70
0410
ENDCHAR
STARTCHAR 00AD
ENCODING 173
SWIDTH 583 0
DWIDTH 14 0
BBX 9 2 2 8
BITMAP
FF80
FF80
ENDCHAR
STARTCHAR 00AE
ENCODING 174
SWIDTH 583 0
DWIDTH 14 0
BBX 12 12 1 6
BITMAP
3F80
2080
60C0
CE70
8910
8910
8E10
8810
8910
C970
60C0
3F80
ENDCHAR
STARTCHAR 00B0
ENCODING 176
SWIDTH 583 0
DWIDTH 14 0
BBX 9 9 1 8
BITMAP
3E00
7F00
F380
C180
C180
F380
F380
7F00
3E00
ENDCHAR
STARTCHAR 00B2
ENCODING 178
SWIDTH 583 0
DWIDTH 14 0
BBX 6 8 4 12
BITMAP
78
CC
0C
78
C0
C0
C0
FC
ENDCHAR
STARTCHAR 00B3
ENCODING 179
SWIDTH 583 0
DWIDTH 14 0
BBX 6 8 4 12
BITMAP
78
CC
0C
38
0C
0C
CC
78
ENDCHAR
STARTCHAR 00B4
ENCODING 180
SWIDTH 583 0
DWIDTH 14 0
BBX 6 3 5 14
BITMAP
3C
78
C0
ENDCHAR
STARTCHAR 00B9
ENCODING 185
SWIDTH 583 0
DWIDTH 14 0
BBX 5 8 5 12
BITMAP
60
E0
60
60
60
60
60
F8
ENDCHAR
STARTCHAR 00BA
ENCODING 186
SWIDTH 583 0
DWIDTH 14 0
BBX 8 13 2 5
BITMAP
3C
7E
C3
C3
C3
C3
C3
7E
3C
00
00
FF
FF
ENDCHAR
STARTCHAR 00BB
ENCODING 187
SWIDTH 583 0
DWIDTH 14 0
BBX 11 10 1 4
BITMAP
8200
C300
6180
30C0
1040
0C60
30C0
6180
C300
8200
ENDCHAR
STARTCHAR 00BC
ENCODING 188
SWIDTH 583 0
DWIDTH 14 0
BBX 11 19 1 1
BITMAP
6040
E0C0
6080
6080
6180
6100
6300
FA00
0200
0C00
0C00
08C0
39C0
2140
6340
43E0
4040
C040
8040
ENDCHAR
STARTCHAR 00BD
ENCODING 189
SWIDTH 583 0
DWIDTH 14 0
BBX 11 19 1 1
BITMAP
6040
E0C0
6080
6080
6180
6100
6300
FA00
0200
0C00
0C00
09C0
3B60
2060
61C0
4300
4300
C300
83E0
ENDCHAR
STARTCHAR 00BE
ENCODING 190
SWIDTH 583 0
DWIDTH 14 0
BBX 12 19 1 1
BITMAP
7810
4810
CC30
0C20
18E0
0C80
CD80
7900
0100
0600
0600
04E0
0DE0
0920
1B20
13F0
1020
7020
4020
ENDCHAR
STARTCHAR 00BF
ENCODING 191
SWIDTH 583 0
DWIDTH 14 0
BBX 12 17 1 1
BITMAP
0600
0600
0000
0000
0000
0000
0E00
3C00
3800
7800
F000
C000
C000
F0F0
F0F0
7FC0
3F80
ENDCHAR
STARTCHAR 00C0
ENCODING 192
SWIDTH 583 0
DWIDTH 14 0
BBX 12 19 1 1
BITMAP
3C00
1E00
1F00
0000
0000
0600
1F00
3F80
7FE0
79E0
E0F0
C030
C030
FFF0
FFF0
C030
C030
C030
C030
ENDCHAR
STARTCHAR 00C1
ENCODING 193
SWIDTH 583 0
DWIDTH 14 0
BBX 12 19 1 1
BITMAP
0380
0780
0F80
0000
0000
0600
0F80
3F80
7FE0
79E0
F070
C030
C030
FFF0
FFF0
C030
C030
C030
C030
ENDCHAR
STARTCHAR 00C2
ENCODING 194
SWIDTH 583 0
DWIDTH 14 0
BBX 12 18 1 1
BITMAP
1F00
1980
0000
0000
0600
1F00
1F80
7FE0
79E0
E0F0
C030
C030
FFF0
FFF0
C030
C030
C030
C030
ENDCHAR
STARTCHAR 00C3
ENCODING 195
SWIDTH 583 0
DWIDTH 14 0
BBX 12 19 1 1
BITMAP
0C80
0C80
1F80
1300
0000
0600
0F00
1F80
7FE0
79E0
F0F0
C030
C030
FFF0
FFF0
C030
C030
C030
C030
ENDCHAR
STARTCHAR 00C4
ENCODING 196
SWIDTH 583 0
DWIDTH 14 0
BBX 12 18 1 1
BITMAP
1980
1980
0000
0000
0600
1F00
1F80
7FE0
79E0
E0F0
C030
C030
FFF0
FFF0
C030
C030
C030
C030
ENDCHAR
STARTCHAR 00C5
ENCODING 197
SWIDTH 583 0
DWIDTH 14 0
BBX 12 19 1 1
BITMAP
0600
0000
0900
0900
0600
0600
0F00
3F80
7FE0
79E0
F0F0
C030
C030
FFF0
FFF0
C030
C030
C030
C030
ENDCHAR
STARTCHAR 00C6
ENCODING 198
SWIDTH 583 0
DWIDTH 14 0
BBX 12 17 1 1
BITMAP
07F0
07F0
1F00
3F00
7B00
7B00
6300
C3F0
C3F0
C300
FF00
FF00
C300
C300
C300
C3F0
C3F0
ENDCHAR
STARTCHAR 00C7
ENCODING 199
SWIDTH 583 0
DWIDTH 14 0
BBX 12 17 1 1
BITMAP
3F80
3F80
60C0
E0F0
C030
C000
C000
C000
C000
E0F0
E0F0
7FC0
7FC0
0F00
0F00
1E00
3C00
ENDCHAR
STARTCHAR 00C8
ENCODING 200
SWIDTH 583 0
DWIDTH 14 0
BBX 12 19 1 1
BITMAP
3C00
1E00
1F00
0000
0000
FFF0
FFF0
C000
C000
C000
C000
FFC0
FFC0
C000
C000
C000
C000
FFF0
FFF0
ENDCHAR
STARTCHAR 00C9
ENCODING 201
SWIDTH 583 0
DWIDTH 14 0
BBX 12 19 1 1
BITMAP
03C0
0F00
0F00
0000
0000
FFF0
FFF0
C000
C000
C000
C000
FFC0
FFC0
C000
C000
C000
C000
FFF0
FFF0
ENDCHAR
STARTCHAR 00CA
ENCODING 202
SWIDTH 583 0
DWIDTH 14 0
BBX 12 18 1 1
BITMAP
1F00
1980
0000
0000
FFF0
FFF0
C000
C000
C000
C000
FF80
FF80
C000
C000
C000
C000
FFF0
FFF0
ENDCHAR
STARTCHAR 00CB
ENCODING 203
SWIDTH 583 0
DWIDTH 14 0
BBX 12 18 1 1
BITMAP
1980
1980
0000
0000
FFF0
FFF0
C000
C000
C000
C000
FF80
FF80
C000
C000
C000
C000
FFF0
FFF0
ENDCHAR
STARTCHAR 00CC
ENCODING 204
SWIDTH 583 0
DWIDTH 14 0
BBX 7 19 4 1
BITMAP
F0
78
7C
00
00
FE
FE
18
18
18
18
18
18
18
18
18
18
FE
FE
ENDCHAR
STARTCHAR 00CD
ENCODING 205
SWIDTH 583 0
DWIDTH 14 0
BBX 7 19 4 1
BITMAP
1E
1E
7E
00
00
FE
FE
18
18
18
18
18
18
18
18
18
18
FE
FE
ENDCHAR
STARTCHAR 00CE
ENCODING 206
SWIDTH 583 0
DWIDTH 14 0
BBX 7 18 4 1
BITMAP
7C
C6
00
00
FE
FE
18
18
18
18
18
18
18
18
18
18
FE
FE
ENDCHAR
STARTCHAR 00CF
ENCODING 207
SWIDTH 583 0
DWIDTH 14 0
BBX 7 18 4 1
BITMAP
C6
C6
00
00
FE
FE
18
18
18
18
18
18
18
18
18
18
FE
FE
ENDCHAR
STARTCHAR 00D0
ENCODING 208
SWIDTH 583 0
DWIDTH 14 0
BBX 12 17 1 1
BITMAP
7FC0
7FC0
60E0
60F0
6030
6030
6030
6030
FC30
FC30
6030
6030
6030
60F0
60F0
7FE0
7FC0
ENDCHAR
STARTCHAR 00D1
ENCODING 209
SWIDTH 583 0
DWIDTH 14 0
BBX 12 19 1 1
BITMAP
0C80
0C80
1F80
1300
0000
C030
C030
F030
F030
FC30
FC30
CF30
CF30
C3F0
C3F0
C0F0
C0F0
C030
C030
ENDCHAR
STARTCHAR 00D2
ENCODING 210
SWIDTH 583 0
DWIDTH 14 0
BBX 12 19 1 1
BITMAP
3C00
1E00
1F00
0000
0000
3F80
7FC0
60C0
C030
C030
C030
C030
C030
C030
C030
E0F0
E0F0
7FC0
3F80
ENDCHAR
STARTCHAR 00D3
ENCODING 211
SWIDTH 583 0
DWIDTH 14 0
BBX 12 19 1 1
BITMAP
0380
0F00
0F00
0000
0000
3F80
7FC0
70C0
C030
C030
C030
C030
C030
C030
C030
F0F0
F0F0
7FC0
3F80
ENDCHAR
STARTCHAR 00D4
ENCODING 212
SWIDTH 583 0
DWIDTH 14 0
BBX 12 18 1 1
BITMAP
1F00
1980
0000
0000
1F80
7FC0
60C0
C030
C030
C030
C030
C030
C030
C030
E0F0
E0F0
7FC0
1F80
ENDCHAR
STARTCHAR 00D5
ENCODING 213
SWIDTH 583 0
DWIDTH 14 0
BBX 12 19 1 1
BITMAP
0C80
0C80
1F80
1300
0000
1F80
7FC0
70C0
C030
C030
C030
C030
C030
C030
C030
F0F0
F0F0
7FC0
1F80
ENDCHAR
STARTCHAR 00D6
ENCODING 214
SWIDTH 583 0
DWIDTH 14 0
BBX 12 18 1 1
BITMAP
1980
1980
0000
0000
1F80
7FC0
70C0
C030
C030
C030
C030
C030
C030
C030
F0F0
F0F0
7FC0
1F80
ENDCHAR
STARTCHAR 00D8
ENCODING 216
SWIDTH 583 0
DWIDTH 14 0
BBX 12 17 1 1
BITMAP
3F30
3F30
71E0
F1E0
C1F0
C330
C330
C330
C630
C630
CC30
CC30
F830
78F0
78F0
FFE0
CFC0
ENDCHAR
STARTCHAR 00D9
ENCODING 217
SWIDTH 583 0
DWIDTH 14 0
BBX 12 19 1 1
BITMAP
3C00
1E00
1F00
0000
0000
C030
C030
C030
C030
C030
C030
C030
C030
C030
C030
E0F0
E0F0
7FC0
3F80
ENDCHAR
STARTCHAR 00DA
ENCODING 218
SWIDTH 583 0
DWIDTH 14 0
BBX 12 19 1 1
BITMAP
0380
0F00
0F00
0000
0000
C030
C030
C030
C030
C030
C030
C030
C030
C030
C030
F0F0
F0F0
7FC0
3F80
ENDCHAR
STARTCHAR 00DB
ENCODING 219
SWIDTH 583 0
DWIDTH 14 0
BBX 12 18 1 1
BITMAP
1F00
1980
0000
0000
C030
C030
C030
C030
C030
C030
C030
C030
C030
C030
E0F0
E0F0
7FC0
1F80
ENDCHAR
STARTCHAR 00DC
ENCODING 220
SWIDTH 583 0
DWIDTH 14 0
BBX 12 18 1 1
BITMAP
1980
1980
0000
0000
C030
C030
C030
C030
C030
C030
C030
C030
C030
C030
F0F0
F0F0
7FC0
1F80
ENDCHAR
STARTCHAR 00DD
ENCODING 221
SWIDTH 583 0
DWIDTH 14 0
BBX 12 19 1 1
BITMAP
0380
0780
0F80
0000
0000
C030
C030
C030
F070
79E0
79E0
3F80
0F80
0600
0600
0600
0600
0600
0600
ENDCHAR
STARTCHAR 00DE
ENCODING 222
SWIDTH 583 0
DWIDTH 14 0
BBX 12 18 1 1
BITMAP
C000
C000
C000
C000
FFC0
FFE0
C0F0
C030
C030
C030
C030
C0F0
FFE0
FFC0
C000
C000
C000
C000
ENDCHAR
STARTCHAR 00DF
ENCODING 223
SWIDTH 583 0
DWIDTH 14 0
BBX 10 18 1 1
BITMAP
1800
E700
E700
C300
C300
C300
C600
C600
C600
C600
C700
C380
C1C0
C1C0
C0C0
C0C0
DFC0
DF80
ENDCHAR
STARTCHAR 00E0
ENCODING 224
SWIDTH 583 0
DWIDTH 14 0
BBX 12 17 1 1
BITMAP
3C00
1C00
1E00
0300
0000
0000
3FE0
3FE0
0030
3F30
7FF0
E0F0
C070
C070
E0F0
7FF0
3F70
ENDCHAR
STARTCHAR 00E1
ENCODING 225
SWIDTH 583 0
DWIDTH 14 0
BBX 12 17 1 1
BITMAP
03C0
0300
0F00
0C00
0000
0000
3FE0
3FE0
0030
3F30
7FF0
F0F0
C030
C030
F0F0
7FF0
3F30
ENDCHAR
STARTCHAR 00E2
ENCODING 226
SWIDTH 583 0
DWIDTH 14 0
BBX 12 17 1 1
BITMAP
0600
0600
1900
1980
0000
0000
1FE0
1FE0
0030
1F30
7FF0
E0F0
C070
C070
E0F0
7FF0
1F70
ENDCHAR
STARTCHAR 00E3
ENCODING 227
SWIDTH 583 0
DWIDTH 14 0
BBX 13 17 1 1
BITMAP
0C00
0C40
1FC0
1300
0000
0000
1FE0
1FE0
0038
1F38
7FF8
F038
C038
C038
F038
7FF8
1F38
ENDCHAR
STARTCHAR 00E4
ENCODING 228
SWIDTH 583 0
DWIDTH 14 0
BBX 12 17 1 1
BITMAP
1980
1980
0000
0000
0000
0000
1FE0
1FE0
0030
1FB0
7FF0
F070
C030
C030
F070
7FF0
1FB0
ENDCHAR
STARTCHAR 00E5
ENCODING 229
SWIDTH 583 0
DWIDTH 14 0
BBX 12 17 1 1
BITMAP
0600
0000
0900
0900
0600
0000
3FE0
3FE0
0030
3F30
7FF0
F0F0
C070
C070
F0F0
7FF0
3F70
ENDCHAR
STARTCHAR 00E6
ENCODING 230
SWIDTH 583 0
DWIDTH 14 0
BBX 12 13 1 1
BITMAP
F9E0
FFF0
0630
0630
0630
7FF0
FFF0
C600
C600
C600
C600
FFE0
7DE0
ENDCHAR
STARTCHAR 00E7
ENCODING 231
SWIDTH 583 0
DWIDTH 14 0
BBX 12 15 1 1
BITMAP
3F80
7FC0
E0F0
C030
C000
C000
C000
E0F0
E0F0
7FC0
3F80
0F00
0F00
1E00
3C00
ENDCHAR
STARTCHAR 00E8
ENCODING 232
SWIDTH 583 0
DWIDTH 14 0
BBX 12 17 1 1
BITMAP
3C00
1C00
1E00
0300
0000
0000
3F80
E0F0
E0F0
C030
FFF0
FFC0
C000
E0F0
60C0
7FC0
3F80
ENDCHAR
STARTCHAR 00E9
ENCODING 233
SWIDTH 583 0
DWIDTH 14 0
BBX 12 17 1 1
BITMAP
0380
0300
0F00
0C00
0000
0000
3F80
F0F0
F0F0
C030
FFF0
FFC0
C000
F0F0
70C0
7FC0
3F80
ENDCHAR
STARTCHAR 00EA
ENCODING 234
SWIDTH 583 0
DWIDTH 14 0
BBX 12 17 1 1
BITMAP
0600
0600
1900
1980
0000
0000
1F80
E0F0
E0F0
E030
FFF0
FFC0
C000
E0F0
60C0
7FC0
1F80
ENDCHAR
STARTCHAR 00EB
ENCODING 235
SWIDTH 583 0
DWIDTH 14 0
BBX 12 17 1 1
BITMAP
1980
1980
0000
0000
0000
0000
1F80
F0F0
F0F0
C030
FFF0
FFC0
C000
F0F0
70C0
7FC0
1F80
ENDCHAR
STARTCHAR 00EC
ENCODING 236
SWIDTH 583 0
DWIDTH 14 0
BBX 8 17 2 1
BITMAP
F0
70
78
0C
00
00
00
7C
7C
0C
0C
0C
0C
0E
0E
07
03
ENDCHAR
STARTCHAR 00ED
ENCODING 237
SWIDTH 583 0
DWIDTH 14 0
BBX 7 17 4 1
BITMAP
1E
1C
3C
60
00
00
00
F0
F0
30
30
30
30
3C
3C
1E
06
ENDCHAR
STARTCHAR 00EE
ENCODING 238
SWIDTH 583 0
DWIDTH 14 0
BBX 8 17 2 1
BITMAP
18
18
64
C6
00
00
00
7C
7C
0C
0C
0C
0C
0E
0E
07
03
ENDCHAR
STARTCHAR 00EF
ENCODING 239
SWIDTH 583 0
DWIDTH 14 0
BBX 8 17 2 1
BITMAP
C6
C6
00
00
00
00
00
7C
7C
0C
0C
0C
0C
0E
0E
07
03
ENDCHAR
STARTCHAR 00F0
ENCODING 240
SWIDTH 583 0
DWIDTH 14 0
BBX 12 17 1 1
BITMAP
00C0
00C0
0FF0
0FF0
00C0
00C0
3FC0
7FC0
F0C0
C0C0
C0C0
C0C0
C0C0
F1C0
F1C0
7F80
3F00
ENDCHAR
STARTCHAR 00F1
ENCODING 241
SWIDTH 583 0
DWIDTH 14 0
BBX 13 17 1 1
BITMAP
0C00
0C40
1FC0
1300
0000
0000
CFC0
FFE0
F038
C038
C038
C038
C038
C038
C038
C038
C038
ENDCHAR
STARTCHAR 00F2
ENCODING 242
SWIDTH 583 0
DWIDTH 14 0
BBX 12 17 1 1
BITMAP
3C00
1C00
1E00
0300
0000
0000
3F80
7FC0
E0F0
C030
C030
C030
C030
E0F0
E0F0
7FC0
3F80
ENDCHAR
STARTCHAR 00F3
ENCODING 243
SWIDTH 583 0
DWIDTH 14 0
BBX 12 17 1 1
BITMAP
0380
0300
0F00
0C00
0000
0000
3F80
7FC0
F0F0
C030
C030
C030
C030
F0F0
F0F0
7FC0
3F80
ENDCHAR
STARTCHAR 00F4
ENCODING 244
SWIDTH 583 0
DWIDTH 14 0
BBX 12 17 1 1
BITMAP
0600
0600
1900
1980
0000
0000
1F80
7FC0
E0F0
C030
C030
C030
C030
E0F0
E0F0
7FC0
1F80
ENDCHAR
STARTCHAR 00F5
ENCODING 245
SWIDTH 583 0
DWIDTH 14 0
BBX 12 17 1 1
BITMAP
0C80
0C80
1F80
1300
0000
0000
1F80
7FC0
F0F0
C030
C030
C030
C030
F0F0
F0F0
7FC0
1F80
ENDCHAR
STARTCHAR 00F6
ENCODING 246
SWIDTH 583 0
DWIDTH 14 0
BBX 12 17 1 1
BITMAP
1980
1980
0000
0000
0000
0000
1F80
7FC0
F0F0
C030
C030
C030
C030
F0F0
F0F0
7FC0
1F80
ENDCHAR
STARTCHAR 00F8
ENCODING 248
SWIDTH 583 0
DWIDTH 14 0
BBX 12 13 1 1
BITMAP
3F30
7FF0
E0C0
E0C0
C1F0
C330
C630
CC30
F830
60F0
60F0
FFC0
CFC0
ENDCHAR
STARTCHAR 00F9
ENCODING 249
SWIDTH 583 0
DWIDTH 14 0
BBX 12 17 1 1
BITMAP
3C00
1C00
1E00
0300
0000
0000
C030
C030
C030
C030
C030
C030
C030
E0F0
E0F0
7FC0
3F80
ENDCHAR
STARTCHAR 00FA
ENCODING 250
SWIDTH 583 0
DWIDTH 14 0
BBX 12 17 1 1
BITMAP
0380
0300
0F00
0C00
0000
0000
C030
C030
C030
C030
C030
C030
C030
F0F0
F0F0
7FC0
3F80
ENDCHAR
STARTCHAR 00FB
ENCODING 251
SWIDTH 583 0
DWIDTH 14 0
BBX 12 17 1 1
BITMAP
0600
0600
1900
1980
0000
0000
C030
C030
C030
C030
C030
C030
C030
E0F0
E0F0
7FC0
1F80
ENDCHAR
STARTCHAR 00FC
ENCODING 252
SWIDTH 583 0
DWIDTH 14 0
BBX 12 17 1 1
BITMAP
1980
1980
0000
0000
0000
0000
C030
C030
C030
C030
C030
C030
C030
F0F0
F0F0
7FC0
1F80
ENDCHAR
STARTCHAR 00FD
ENCODING 253
SWIDTH 583 0
DWIDTH 14 0
BBX 12 17 1 1
BITMAP
03C0
0300
0F00
0C00
0000
0000
C0F0
C1F0
C1F0
F3F0
7F30
3E30
0030
00F0
00F0
3FE0
3FC0
ENDCHAR
STARTCHAR 00FE
ENCODING 254
SWIDTH 583 0
DWIDTH 14 0
BBX 12 15 1 1
BITMAP
C000
C000
C7C0
C7C0
F870
F870
C030
C030
C030
F870
F860
C7C0
C7C0
C000
C000
ENDCHAR
STARTCHAR 00FF
ENCODING 255
SWIDTH 583 0
DWIDTH 14 0
BBX 12 17 1 1
BITMAP
1880
1880
0000
0000
0000
0000
C0F0
C0F0
C0F0
F3F0
7F30
1F30
0030
00F0
00F0
1FE0
1F80
ENDCHAR
STARTCHAR 037E
ENCODING 894
SWIDTH 583 0
DWIDTH 14 0
BBX 5 14 2 1
BITMAP
18
18
00
00
00
00
00
00
00
18
18
30
30
E0
ENDCHAR
STARTCHAR 2018
ENCODING 8216
SWIDTH 583 0
DWIDTH 14 0
BBX 3 8 7 10
BITMAP
20
40
40
C0
E0
E0
E0
E0
ENDCHAR
STARTCHAR 2019
ENCODING 8217
SWIDTH 583 0
DWIDTH 14 0
BBX 3 7 4 11
BITMAP
E0
E0
E0
E0
60
40
80
ENDCHAR
STARTCHAR 201C
ENCODING 8220
SWIDTH 583 0
DWIDTH 14 0
BBX 9 8 3 10
BITMAP
2080
4100
4100
C300
E380
E380
E380
E380
ENDCHAR
STARTCHAR 201D
ENCODING 8221
SWIDTH 583 0
DWIDTH 14 0
BBX 9 7 3 11
BITMAP
E380
E380
E380
E380
6180
4100
8200
ENDCHAR
STARTCHAR 2022
ENCODING 8226
SWIDTH 583 0
DWIDTH 14 0
BBX 7 6 4 7
BITMAP
7C
FE
FE
FE
FE
7C
ENDCHAR
STARTCHAR 2026
ENCODING 8230
SWIDTH 583 0
DWIDTH 14 0
BBX 12 2 1 1
BITMAP
C670
C670
ENDCHAR
STARTCHAR 2039
ENCODING 8249
SWIDTH 583 0
DWIDTH 14 0
BBX 6 10 2 1
BITMAP
04
1C
18
60
C0
40
60
18
1C
04
ENDCHAR
STARTCHAR 203A
ENCODING 8250
SWIDTH 583 0
DWIDTH 14 0
BBX 6 10 4 1
BITMAP
80
C0
60
30
0C
10
30
60
C0
80
ENDCHAR
STARTCHAR 2044
ENCODING 8260
SWIDTH 583 0
DWIDTH 14 0
BBX 12 17 1 1
BITMAP
0030
0030
0030
0030
00F0
01E0
03C0
07C0
0700
1E00
3C00
7800
E000
E000
C000
C000
C000
ENDCHAR
STARTCHAR 20A3
ENCODING 8355
SWIDTH 583 0
DWIDTH 14 0
BBX 12 17 1 1
BITMAP
7FF0
7FF0
6000
6000
6000
6000
6000
6000
7FC0
7FC0
6000
6000
FC00
6000
6000
6000
6000
ENDCHAR
STARTCHAR 20A4
ENCODING 8356
SWIDTH 583 0
DWIDTH 14 0
BBX 12 18 1 1
BITMAP
0FE0
1C70
1C70
1800
1800
1800
1800
FFC0
FFC0
1800
FFC0
FFC0
1800
1800
6000
6000
FFF0
FFF0
ENDCHAR
STARTCHAR 20A7
ENCODING 8359
SWIDTH 583 0
DWIDTH 14 0
BBX 12 17 1 1
BITMAP
F000
B800
B800
8800
8800
8800
8A00
8A00
8A00
BFF0
F290
8280
82F0
8210
8210
8290
82F0
ENDCHAR
STARTCHAR 20AC
ENCODING 8364
SWIDTH 583 0
DWIDTH 14 0
BBX 12 18 1 1
BITMAP
0FE0
3C30
3800
7800
6000
FE00
FE00
6000
6000
FE00
FE00
6000
6000
7800
3C30
0C20
0FE0
07C0
ENDCHAR
STARTCHAR 2122
ENCODING 8482
SWIDTH 583 0
DWIDTH 14 0
BBX 12 7 1 11
BITMAP
FF10
13B0
1350
1350
1310
1310
1310
ENDCHAR
STARTCHAR 2190
ENCODING 8592
SWIDTH 583 0
DWIDTH 14 0
BBX 12 11 1 4
BITMAP
0600
0C00
1800
7000
7000
FFF0
FFF0
7000
1800
0C00
0600
ENDCHAR
STARTCHAR 2191
ENCODING 8593
SWIDTH 583 0
DWIDTH 14 0
BBX 12 11 1 4
BITMAP
0E00
0E00
1F00
1F00
31C0
31C0
31C0
60E0
60E0
C030
C030
ENDCHAR
STARTCHAR 2192
ENCODING 8594
SWIDTH 583 0
DWIDTH 14 0
BBX 12 11 1 4
BITMAP
0600
0300
01C0
00E0
00E0
FFF0
FFF0
00E0
01C0
0300
0600
ENDCHAR
STARTCHAR 2193
ENCODING 8595
SWIDTH 583 0
DWIDTH 14 0
BBX 12 12 1 3
BITMAP
C030
C030
60E0
60E0
31C0
31C0
31C0
1F00
1F00
0E00
0E00
0E00
ENDCHAR
STARTCHAR 2194
ENCODING 8596
SWIDTH 583 0
DWIDTH 14 0
BBX 12 12 1 2
BITMAP
0200
0300
03C0
03C0
FFE0
FFF0
FFF0
FFE0
03C0
0300
0300
0200
ENDCHAR
STARTCHAR 2215
ENCODING 8725
SWIDTH 583 0
DWIDTH 14 0
BBX 12 17 1 1
BITMAP
0030
0030
0030
0030
00F0
01E0
03C0
07C0
0700
1E00
3C00
7800
E000
E000
C000
C000
C000
ENDCHAR
STARTCHAR 25B2
ENCODING 9650
SWIDTH 583 0
DWIDTH 14 0
BBX 12 14 1 2
BITMAP
0600
0600
0F00
0F00
1FC0
1FC0
1FC0
7FE0
7FE0
FFF0
FFF0
FFF0
FFF0
FFF0
ENDCHAR
STARTCHAR 25BA
ENCODING 9658
SWIDTH 583 0
DWIDTH 14 0
BBX 10 14 2 2
BITMAP
F000
F800
FC00
FF00
FF00
FF80
FFC0
FFC0
FF80
FF00
FC00
FC00
F800
F000
ENDCHAR
STARTCHAR 25BC
ENCODING 9660
SWIDTH 583 0
DWIDTH 14 0
BBX 12 14 1 3
BITMAP
FFF0
FFF0
FFF0
FFF0
FFF0
7FE0
7FE0
1FC0
1FC0
1FC0
0F00
0F00
0600
0600
ENDCHAR
STARTCHAR 25C4
ENCODING 9668
SWIDTH 583 0
DWIDTH 14 0
BBX 10 14 2 2
BITMAP
03C0
07C0
0FC0
3FC0
3FC0
7FC0
FFC0
FFC0
7FC0
3FC0
0FC0
0FC0
07C0
03C0
ENDCHAR
ENDFONT
